<?xml version="1.0" encoding="UTF-8"?>
<svg version="1.1" xmlns="http://www.w3.org/2000/svg" width="189" height="100">
<path d="M0 0 C62.37 0 124.74 0 189 0 C189 33 189 66 189 100 C126.63 100 64.26 100 0 100 C0 67 0 34 0 0 Z " fill="#110E29" transform="translate(0,0)"/>
<path d="M0 0 C3.46106561 1.19936702 6.18281464 3.57653798 9.06567383 5.77832031 C15.58770451 10.66844065 22.22863468 15.27238146 29.06567383 19.71582031 C27.11728418 29.21963202 19.95294085 38.39290071 15.11962891 46.70166016 C11.66318526 52.65234022 8.30084289 58.64134676 5.06567383 64.71582031 C5.84942383 64.67457031 6.63317383 64.63332031 7.44067383 64.59082031 C10.06567383 64.71582031 10.06567383 64.71582031 12.06567383 66.71582031 C12.37817383 69.21582031 12.37817383 69.21582031 12.06567383 71.71582031 C9.06567383 73.71582031 9.06567383 73.71582031 5.50317383 73.40332031 C2.06567383 72.71582031 2.06567383 72.71582031 0.06567383 71.71582031 C0.11788086 72.92818359 0.11788086 72.92818359 0.17114258 74.16503906 C0.19821289 75.23367187 0.2252832 76.30230469 0.25317383 77.40332031 C0.30538086 78.98693359 0.30538086 78.98693359 0.35864258 80.60253906 C-0.05777812 85.02770306 -1.62957053 87.47603175 -4.81713867 90.50488281 C-8.64990469 92.69705526 -12.65598758 92.21518475 -16.93432617 91.71582031 C-22.33590098 89.78668645 -22.33590098 89.78668645 -24.12182617 86.59082031 C-24.38995117 85.97207031 -24.65807617 85.35332031 -24.93432617 84.71582031 C-25.92432617 84.38582031 -26.91432617 84.05582031 -27.93432617 83.71582031 C-27.98915342 82.17456557 -28.02748751 80.63272126 -28.05932617 79.09082031 C-28.0825293 78.23230469 -28.10573242 77.37378906 -28.12963867 76.48925781 C-27.93432617 73.71582031 -27.93432617 73.71582031 -26.93432617 70.84082031 C-25.7655687 67.18845323 -25.73715695 64.16578922 -25.80932617 60.34082031 C-25.83639648 58.47296875 -25.83639648 58.47296875 -25.86401367 56.56738281 C-25.8872168 55.62636719 -25.91041992 54.68535156 -25.93432617 53.71582031 C-26.59432617 53.71582031 -27.25432617 53.71582031 -27.93432617 53.71582031 C-27.93432617 52.72582031 -27.93432617 51.73582031 -27.93432617 50.71582031 C-26.05932617 50.90332031 -26.05932617 50.90332031 -23.93432617 51.71582031 C-21.31519125 56.16834967 -21.35240663 61.02328782 -22.42651367 65.99316406 C-23.03988222 69.28176312 -23.178865 72.43391513 -23.24682617 75.77832031 C-23.28420898 76.98617187 -23.3215918 78.19402344 -23.36010742 79.43847656 C-22.8586934 83.29798447 -21.96241831 84.37312194 -18.93432617 86.71582031 C-15.75927408 88.30334636 -12.39831819 87.99705531 -8.93432617 87.71582031 C-6.12423098 86.70706819 -5.26734909 86.38186615 -3.93432617 83.71582031 C-3.70682467 81.8452524 -3.52469807 79.96896073 -3.37182617 78.09082031 C-3.28803711 77.08792969 -3.20424805 76.08503906 -3.11791992 75.05175781 C-3.02704102 73.89546875 -3.02704102 73.89546875 -2.93432617 72.71582031 C-4.21307617 72.75707031 -5.49182617 72.79832031 -6.80932617 72.84082031 C-8.98901367 72.91113281 -8.98901367 72.91113281 -10.93432617 72.71582031 C-12.93432617 70.71582031 -12.93432617 70.71582031 -13.12182617 68.15332031 C-12.93432617 65.71582031 -12.93432617 65.71582031 -11.93432617 64.71582031 C-9.93474253 64.67501248 -7.93387363 64.67327675 -5.93432617 64.71582031 C-9.91140869 56.28756598 -14.28722196 48.35339963 -19.29101562 40.49609375 C-28.44714701 26.09303202 -28.44714701 26.09303202 -29.93432617 19.71582031 C-29.24826294 19.23338867 -29.24826294 19.23338867 -28.54833984 18.74121094 C-27.18079402 17.77907356 -25.81364134 16.81637726 -24.44677734 15.85327148 C-22.89197312 14.75823085 -21.33613861 13.66465168 -19.77929688 12.57250977 C-16.31120888 10.13275228 -12.8584544 7.68770425 -9.49682617 5.10253906 C-8.54807617 4.37679688 -7.59932617 3.65105469 -6.62182617 2.90332031 C-5.80069336 2.2575 -4.97956055 1.61167969 -4.13354492 0.94628906 C-1.93432617 -0.28417969 -1.93432617 -0.28417969 0 0 Z " fill="#7847DD" transform="translate(41.934326171875,4.2841796875)"/>
<path d="M0 0 C7.92 0 15.84 0 24 0 C24 1.98 24 3.96 24 6 C18.72 6 13.44 6 8 6 C8 8.64 8 11.28 8 14 C12.62 14 17.24 14 22 14 C22 15.98 22 17.96 22 20 C17.05 20 12.1 20 7 20 C7 23.3 7 26.6 7 30 C12.94 30 18.88 30 25 30 C25 31.98 25 33.96 25 36 C16.75 36 8.5 36 0 36 C0 24.12 0 12.24 0 0 Z " fill="#F4F8F9" transform="translate(156,34)"/>
<path d="M0 0 C2.31 0 4.62 0 7 0 C7.33 4.29 7.66 8.58 8 13 C9.44375 11.411875 10.8875 9.82375 12.375 8.1875 C13.18710938 7.29417969 13.99921875 6.40085937 14.8359375 5.48046875 C17.09072907 3.00367326 17.09072907 3.00367326 19 0 C20.9453125 -0.29296875 20.9453125 -0.29296875 23.125 -0.1875 C24.40375 -0.125625 25.6825 -0.06375 27 0 C24.7757418 3.9374409 22.20149367 7.3373337 19.3125 10.8125 C18.50425781 11.78832031 17.69601563 12.76414062 16.86328125 13.76953125 C16.24839844 14.50558594 15.63351563 15.24164063 15 16 C18.29656216 21.07578146 21.90551463 25.82591541 25.640625 30.58398438 C29 34.89818173 29 34.89818173 29 36 C25.88394152 36.47272695 23.10532381 36.60187984 20 36 C17.22892944 33.91354687 15.40509921 31.33273039 13.4375 28.5 C12.90576172 27.78457031 12.37402344 27.06914063 11.82617188 26.33203125 C10.52489627 24.5735507 9.25878824 22.78914064 8 21 C7.67 25.95 7.34 30.9 7 36 C4.69 36 2.38 36 0 36 C0 24.12 0 12.24 0 0 Z " fill="#F6F7F3" transform="translate(76,34)"/>
<path d="M0 0 C0.99 0 1.98 0 3 0 C3.33 12.87 3.66 25.74 4 39 C5.485 38.505 5.485 38.505 7 38 C7 39.32 7 40.64 7 42 C8.175625 41.938125 8.175625 41.938125 9.375 41.875 C12 42 12 42 14 44 C14.3125 46.5 14.3125 46.5 14 49 C11 51 11 51 7.4375 50.6875 C4 50 4 50 2 49 C2.05220703 50.21236328 2.05220703 50.21236328 2.10546875 51.44921875 C2.13253906 52.51785156 2.15960938 53.58648437 2.1875 54.6875 C2.23970703 56.27111328 2.23970703 56.27111328 2.29296875 57.88671875 C1.87654805 62.31188275 0.30475564 64.76021144 -2.8828125 67.7890625 C-6.71557852 69.98123495 -10.7216614 69.49936444 -15 69 C-20.4015748 67.07086614 -20.4015748 67.07086614 -22.1875 63.875 C-22.455625 63.25625 -22.72375 62.6375 -23 62 C-23.99 61.67 -24.98 61.34 -26 61 C-26.05482724 59.45874525 -26.09316134 57.91690094 -26.125 56.375 C-26.15980469 55.08722656 -26.15980469 55.08722656 -26.1953125 53.7734375 C-26 51 -26 51 -25 48.125 C-23.83124253 44.47263291 -23.80283078 41.4499689 -23.875 37.625 C-23.89304687 36.37976562 -23.91109375 35.13453125 -23.9296875 33.8515625 C-23.95289063 32.91054688 -23.97609375 31.96953125 -24 31 C-24.66 31 -25.32 31 -26 31 C-26 30.01 -26 29.02 -26 28 C-24.125 28.1875 -24.125 28.1875 -22 29 C-19.38086508 33.45252936 -19.41808046 38.30746751 -20.4921875 43.27734375 C-21.10555605 46.56594281 -21.24453883 49.71809482 -21.3125 53.0625 C-21.34988281 54.27035156 -21.38726563 55.47820312 -21.42578125 56.72265625 C-20.92436723 60.58216416 -20.02809214 61.65730163 -17 64 C-13.8249479 65.58752605 -10.46399201 65.281235 -7 65 C-4.18990481 63.99124788 -3.33302292 63.66604583 -2 61 C-1.7724985 59.12943209 -1.59037189 57.25314042 -1.4375 55.375 C-1.35371094 54.37210938 -1.26992188 53.36921875 -1.18359375 52.3359375 C-1.09271484 51.17964844 -1.09271484 51.17964844 -1 50 C-2.27875 50.04125 -3.5575 50.0825 -4.875 50.125 C-7.0546875 50.1953125 -7.0546875 50.1953125 -9 50 C-11 48 -11 48 -11.1875 45.4375 C-11 43 -11 43 -10 42 C-8.00041636 41.95919217 -5.99954746 41.95745644 -4 42 C-4 41.01 -4 40.02 -4 39 C-3.01 39 -2.02 39 -1 39 C-0.67 26.13 -0.34 13.26 0 0 Z " fill="#7847DD" transform="translate(40,27)"/>
<path d="M0 0 C7.59 0 15.18 0 23 0 C21.58894388 4.23316835 20.61947201 6.95926302 18.390625 10.57421875 C17.88587646 11.40187744 17.38112793 12.22953613 16.86108398 13.08227539 C16.32942627 13.94199951 15.79776855 14.80172363 15.25 15.6875 C11.36855495 22.04142382 7.58626355 28.37877034 4.18359375 35.00390625 C3 37 3 37 0 40 C0 26.8 0 13.6 0 0 Z " fill="#130E2D" transform="translate(43,27)"/>
<path d="M0 0 C7.59 0 15.18 0 23 0 C23 13.2 23 26.4 23 40 C18.41189528 35.41189528 15.50133151 30.12964661 12.6875 24.3125 C10.10076972 18.98251755 6.97237962 14.05080736 3.76953125 9.078125 C2 6 2 6 0 0 Z " fill="#130E2D" transform="translate(17,27)"/>
<path d="M0 0 C0.99 0.33 1.98 0.66 3 1 C2.01 1.66 1.02 2.32 0 3 C0.33 3.33 0.66 3.66 1 4 C1.10024126 6.63575543 1.13875021 9.23954245 1.125 11.875 C1.13080078 12.97521484 1.13080078 12.97521484 1.13671875 14.09765625 C1.13084138 17.32433238 1.0271886 19.91843421 0 23 C-7.59 23 -15.18 23 -23 23 C-19.44450781 29.74062062 -15.847065 36.34811256 -11.8125 42.8125 C-7.95502539 48.99788966 -4.5667371 55.15536773 -2 62 C-3.76171875 61.9296875 -3.76171875 61.9296875 -6 61 C-7.44892569 58.71159366 -8.6415893 56.54915566 -9.8125 54.125 C-10.51071983 52.74556616 -11.21258071 51.36796959 -11.91796875 49.9921875 C-12.26649902 49.31124023 -12.6150293 48.63029297 -12.97412109 47.92871094 C-14.38576004 45.27474909 -15.9809437 42.76529678 -17.625 40.25 C-26.45014248 26.708669 -26.45014248 26.708669 -28 20 C-27.31393677 19.51756836 -27.31393677 19.51756836 -26.61401367 19.02539062 C-25.24641342 18.06321496 -23.87917678 17.10052238 -22.51220703 16.13745117 C-20.95800121 15.04271704 -19.40298279 13.94913569 -17.84716797 12.85668945 C-14.3724841 10.41050911 -10.91066847 7.95828785 -7.52734375 5.38671875 C-6.56957031 4.66097656 -5.61179687 3.93523438 -4.625 3.1875 C-3.37589844 2.21876953 -3.37589844 2.21876953 -2.1015625 1.23046875 C-1.40804687 0.82441406 -0.71453125 0.41835937 0 0 Z " fill="#7846DC" transform="translate(40,4)"/>
<path d="M0 0 C9.24 0 18.48 0 28 0 C28 1.98 28 3.96 28 6 C24.7 6 21.4 6 18 6 C18 15.9 18 25.8 18 36 C15.69 36 13.38 36 11 36 C11 26.1 11 16.2 11 6 C7.37 6 3.74 6 0 6 C0 4.02 0 2.04 0 0 Z " fill="#FAFCF8" transform="translate(122,34)"/>
<path d="M0 0 C2.64 0 5.28 0 8 0 C8 11.88 8 23.76 8 36 C5.36 36 2.72 36 0 36 C0 24.12 0 12.24 0 0 Z " fill="#E5E6E9" transform="translate(109,34)"/>
<path d="M0 0 C1.875 0.1875 1.875 0.1875 4 1 C6.61913492 5.45252936 6.58191954 10.30746751 5.5078125 15.27734375 C4.89444395 18.56594281 4.75546117 21.71809482 4.6875 25.0625 C4.65011719 26.27035156 4.61273437 27.47820312 4.57421875 28.72265625 C5.07563277 32.58216416 5.97190786 33.65730163 9 36 C12.1750521 37.58752605 15.53600799 37.281235 19 37 C21.81009519 35.99124788 22.66697708 35.66604583 24 33 C24.2275015 31.12943209 24.40962811 29.25314042 24.5625 27.375 C24.64628906 26.37210938 24.73007812 25.36921875 24.81640625 24.3359375 C24.90728516 23.17964844 24.90728516 23.17964844 25 22 C24.34 22 23.68 22 23 22 C23 21.34 23 20.68 23 20 C21.35 20 19.7 20 18 20 C17.67 19.01 17.34 18.02 17 17 C22.75 15.875 22.75 15.875 25 17 C25.36548445 18.32488113 25.6937566 19.66018514 26 21 C26.350625 21.5775 26.70125 22.155 27.0625 22.75 C28.47118261 26.13083827 28.46320502 29.422632 28 33 C26.3366299 36.74258273 24.44009521 38.82698612 21 41 C15.21612591 41.97352336 9.87202402 41.41041681 5 38 C3.8125 35.875 3.8125 35.875 3 34 C2.01 33.67 1.02 33.34 0 33 C-0.05482724 31.45874525 -0.09316134 29.91690094 -0.125 28.375 C-0.14820313 27.51648438 -0.17140625 26.65796875 -0.1953125 25.7734375 C0 23 0 23 1 20.125 C2.16875747 16.47263291 2.19716922 13.4499689 2.125 9.625 C2.10695313 8.37976562 2.08890625 7.13453125 2.0703125 5.8515625 C2.04710937 4.91054688 2.02390625 3.96953125 2 3 C1.34 3 0.68 3 0 3 C0 2.01 0 1.02 0 0 Z " fill="#7847DD" transform="translate(14,55)"/>
<path d="M0 0 C0 4.95 0 9.9 0 15 C-6.93 15 -13.86 15 -21 15 C-17.28937647 11.28937647 -13.58620196 8.32369338 -9.375 5.25 C-8.694375 4.74339844 -8.01375 4.23679687 -7.3125 3.71484375 C-6.66023438 3.23660156 -6.00796875 2.75835937 -5.3359375 2.265625 C-4.74345215 1.83024414 -4.1509668 1.39486328 -3.54052734 0.94628906 C-2 0 -2 0 0 0 Z " fill="#120E2D" transform="translate(40,9)"/>
<path d="M0 0 C4.59378589 2.29689294 8.56975794 5.09889555 12.75 8.0625 C13.54277344 8.61744141 14.33554687 9.17238281 15.15234375 9.74414062 C15.90128906 10.27330078 16.65023437 10.80246094 17.421875 11.34765625 C18.45199707 12.07480835 18.45199707 12.07480835 19.50292969 12.81665039 C19.99696289 13.20715576 20.49099609 13.59766113 21 14 C21 14.33 21 14.66 21 15 C14.07 15 7.14 15 0 15 C0 10.05 0 5.1 0 0 Z " fill="#120E2B" transform="translate(43,9)"/>
<path d="M0 0 C0.33 0 0.66 0 1 0 C1.33 4.95 1.66 9.9 2 15 C8.93 15.33 15.86 15.66 23 16 C23 16.33 23 16.66 23 17 C12.605 17.495 12.605 17.495 2 18 C1.67 31.53 1.34 45.06 1 59 C0.67 59 0.34 59 0 59 C-0.33 45.47 -0.66 31.94 -1 18 C-7.93 17.67 -14.86 17.34 -22 17 C-22 16.67 -22 16.34 -22 16 C-11.605 15.505 -11.605 15.505 -1 15 C-0.67 10.05 -0.34 5.1 0 0 Z " fill="#8B51FE" transform="translate(41,9)"/>
<path d="M0 0 C1.875 0.1875 1.875 0.1875 4 1 C7.89012234 7.61320798 5.7077892 15.78325317 4.5 22.9375 C4.35691406 23.81212891 4.21382812 24.68675781 4.06640625 25.58789062 C3.71588387 27.72607717 3.35863074 29.86315849 3 32 C2.34 32 1.68 32 1 32 C0.97306425 29.87506859 0.95363372 27.75004088 0.9375 25.625 C0.92589844 24.44164063 0.91429687 23.25828125 0.90234375 22.0390625 C1 19 1 19 2 17 C2.07116382 14.62597499 2.08409085 12.24999323 2.0625 9.875 C2.05347656 8.59367187 2.04445313 7.31234375 2.03515625 5.9921875 C2.02355469 5.00476562 2.01195312 4.01734375 2 3 C1.34 3 0.68 3 0 3 C0 2.01 0 1.02 0 0 Z " fill="#7746DB" transform="translate(14,55)"/>
<path d="M0 0 C0.33 0.66 0.66 1.32 1 2 C1.78375 1.95875 2.5675 1.9175 3.375 1.875 C6 2 6 2 8 4 C8.3125 6.5 8.3125 6.5 8 9 C5 11 5 11 1.4375 10.75 C-2 10 -2 10 -4 8 C-3.34 8 -2.68 8 -2 8 C-2 7.01 -2 6.02 -2 5 C-1.34 4.34 -0.68 3.68 0 3 C0 2.01 0 1.02 0 0 Z " fill="#7B48E1" transform="translate(46,67)"/>
<path d="M0 0 C0.12375 0.5775 0.2475 1.155 0.375 1.75 C0.88933855 3.99608489 0.88933855 3.99608489 2.0625 5.75 C3.79120139 9.89888333 3.65928943 14.35177643 2 18.5 C1.67 18.995 1.34 19.49 1 20 C-1.14699969 16.55824478 -1.09856795 14.2279708 -0.625 10.25 C-0.51414062 9.26515625 -0.40328125 8.2803125 -0.2890625 7.265625 C-0.14597656 6.14414063 -0.14597656 6.14414063 0 5 C-0.66 5 -1.32 5 -2 5 C-2 4.34 -2 3.68 -2 3 C-3.65 3 -5.3 3 -7 3 C-7.33 2.01 -7.66 1.02 -8 0 C-5.13822943 -1.43088528 -3.06624227 -0.59991697 0 0 Z " fill="#6E41CB" transform="translate(39,72)"/>
<path d="M0 0 C0.66 0 1.32 0 2 0 C2 4.95 2 9.9 2 15 C-4.93 15 -11.86 15 -19 15 C-17.68 13.68 -16.36 12.36 -15 11 C-14.34 11.33 -13.68 11.66 -13 12 C-13.33 12.33 -13.66 12.66 -14 13 C-9.05 13.33 -4.1 13.66 1 14 C1 10.04 1 6.08 1 2 C0.34 1.67 -0.32 1.34 -1 1 C-0.67 0.67 -0.34 0.34 0 0 Z " fill="#271950" transform="translate(38,9)"/>
<path d="M0 0 C0.99 0.33 1.98 0.66 3 1 C2.01 1.66 1.02 2.32 0 3 C0.33 3.33 0.66 3.66 1 4 C1.07319621 6.69654854 1.09242537 9.36691458 1.0625 12.0625 C1.05798828 12.82111328 1.05347656 13.57972656 1.04882812 14.36132812 C1.0370068 16.24091871 1.01907078 18.12046899 1 20 C0.67 20 0.34 20 0 20 C0 15.05 0 10.1 0 5 C-0.99 5.66 -1.98 6.32 -3 7 C-5.6875 7.125 -5.6875 7.125 -8 7 C-3.04087193 1.86376022 -3.04087193 1.86376022 0 0 Z " fill="#6E41CB" transform="translate(40,4)"/>
<path d="M0 0 C3 1 3 1 4.09765625 2.671875 C4.41605469 3.35765625 4.73445313 4.0434375 5.0625 4.75 C5.39894531 5.46671875 5.73539063 6.1834375 6.08203125 6.921875 C7.11486564 9.26003626 8.10240315 11.60640841 9 14 C7.171875 13.8046875 7.171875 13.8046875 5 13 C3.515625 10.8203125 3.515625 10.8203125 2.25 8.125 C1.60804687 6.79855469 1.60804687 6.79855469 0.953125 5.4453125 C0 3 0 3 0 0 Z " fill="#7E4AE7" transform="translate(29,52)"/>
<path d="M0 0 C0.99 0.33 1.98 0.66 3 1 C2.67 1.66 2.34 2.32 2 3 C1.7724985 4.87056791 1.59037189 6.74685958 1.4375 8.625 C1.293125 10.39875 1.14875 12.1725 1 14 C7.27 13.67 13.54 13.34 20 13 C20.33 13.66 20.66 14.32 21 15 C14.07 15 7.14 15 0 15 C0 10.05 0 5.1 0 0 Z " fill="#291A53" transform="translate(43,9)"/>
<path d="M0 0 C0.33 0 0.66 0 1 0 C1.12036664 5.77759884 0.8320582 11.27959989 0 17 C-0.66 17 -1.32 17 -2 17 C-2.05418326 14.91695462 -2.09287551 12.83350232 -2.125 10.75 C-2.14820313 9.58984375 -2.17140625 8.4296875 -2.1953125 7.234375 C-2.0103949 4.17213954 -1.60823023 2.55797249 0 0 Z " fill="#804BEA" transform="translate(17,70)"/>
<path d="M0 0 C0.33 0.99 0.66 1.98 1 3 C-0.98 3.66 -2.96 4.32 -5 5 C-4.67 5.66 -4.34 6.32 -4 7 C-1.47266765 7.65555119 -1.47266765 7.65555119 1 8 C1 8.66 1 9.32 1 10 C-1.875 10.125 -1.875 10.125 -5 10 C-7 8 -7 8 -7.1875 5.4375 C-7 3 -7 3 -6 2 C-4.00041636 1.95919217 -1.99954746 1.95745644 0 2 C0 1.34 0 0.68 0 0 Z " fill="#874FF6" transform="translate(36,67)"/>
<path d="M0 0 C0.33 0 0.66 0 1 0 C1 2.97 1 5.94 1 9 C1.66 9 2.32 9 3 9 C3 6.36 3 3.72 3 1 C3.33 1 3.66 1 4 1 C4.22786458 3.01822917 4.45572917 5.03645833 4.68359375 7.0546875 C4.91292961 9.07404316 4.91292961 9.07404316 6 11 C5.34 11 4.68 11 4 11 C3.67 11.66 3.34 12.32 3 13 C3 12.34 3 11.68 3 11 C2.01 10.67 1.02 10.34 0 10 C0 6.7 0 3.4 0 0 Z " fill="#503098" transform="translate(14,78)"/>
<path d="M0 0 C0.33 0.99 0.66 1.98 1 3 C-0.8125 6.1875 -0.8125 6.1875 -3 9 C-3.66 9 -4.32 9 -5 9 C-4.5206753 4.68607774 -3.2542015 2.83430453 0 0 Z " fill="#7E4AE8" transform="translate(61,39)"/>
<path d="M0 0 C-0.33 0.99 -0.66 1.98 -1 3 C-3.31 2.67 -5.62 2.34 -8 2 C-8 1.34 -8 0.68 -8 0 C-5.13822943 -1.43088528 -3.06624227 -0.59991697 0 0 Z " fill="#2B1B57" transform="translate(52,72)"/>
<path d="M0 0 C0 0.66 0 1.32 0 2 C-2.31 2.33 -4.62 2.66 -7 3 C-7.33 2.01 -7.66 1.02 -8 0 C-5.13822943 -1.43088528 -3.06624227 -0.59991697 0 0 Z " fill="#2B1C58" transform="translate(39,72)"/>
<path d="M0 0 C1 3 1 3 -0.4375 6.1875 C-1.2109375 7.5796875 -1.2109375 7.5796875 -2 9 C-2.99 8.67 -3.98 8.34 -5 8 C-3.8141763 4.62496331 -2.72426311 2.35277269 0 0 Z " fill="#7D49E6" transform="translate(50,58)"/>
<path d="M0 0 C0.99 0 1.98 0 3 0 C5 3 5 3 5 7 C4.01 6.67 3.02 6.34 2 6 C0.8125 2.9375 0.8125 2.9375 0 0 Z " fill="#7E4AE7" transform="translate(20,38)"/>
<path d="M0 0 C-0.33 1.32 -0.66 2.64 -1 4 C-2.65 4.33 -4.3 4.66 -6 5 C-6 4.01 -6 3.02 -6 2 C-2.25 0 -2.25 0 0 0 Z " fill="#804BEA" transform="translate(39,90)"/>
<path d="M0 0 C1.32 0.33 2.64 0.66 4 1 C4.33 2.65 4.66 4.3 5 6 C4.01 5.67 3.02 5.34 2 5 C2 4.34 2 3.68 2 3 C1.34 3 0.68 3 0 3 C0 2.01 0 1.02 0 0 Z " fill="#693EC3" transform="translate(14,55)"/>
<path d="M0 0 C0.33 0.99 0.66 1.98 1 3 C-1.64 3.99 -4.28 4.98 -7 6 C-6.67 4.68 -6.34 3.36 -6 2 C-4.02 2 -2.04 2 0 2 C0 1.34 0 0.68 0 0 Z " fill="#7444D5" transform="translate(36,67)"/>
</svg>
